<svg xmlns="http://www.w3.org/2000/svg" viewBox="-2 -12 108 104" width="1024" height="1024">
  <!-- Favicon: só o símbolo, fundo transparente, recorte justo. -->
  
  <g transform="">
    <g fill="#FF4FA3">
      <g transform="translate(1.2 1.6)">
        <rect x="17" y="22.5" width="17.5" height="6.5" rx="3.25"/>
        <rect x="1" y="37.8" width="33.5" height="6.7" rx="3.35"/>
        <rect x="13.7" y="53" width="20.8" height="6.7" rx="3.35"/>
      </g>
      <path transform="translate(5.5 5.5)" d="M44.3 .7H77L96.2 26V67a4 4 0 0 1-4 4H44.3a4 4 0 0 1-4-4V4.7a4 4 0 0 1 4-4z"/>
    </g>
    <g fill="#1D9E75">
      <rect x="17" y="22.5" width="17.5" height="6.5" rx="3.25"/>
      <rect x="1" y="37.8" width="33.5" height="6.7" rx="3.35"/>
      <rect x="13.7" y="53" width="20.8" height="6.7" rx="3.35"/>
      <path d="M44.3 .7H77L96.2 26V67a4 4 0 0 1-4 4H44.3a4 4 0 0 1-4-4V4.7a4 4 0 0 1 4-4z"/>
    </g>
    <path d="M77 .7V22a4 4 0 0 0 4 4H96.2Z" fill="#1D314B"/>
    <g fill="#FF4FA3" transform="translate(2.4 2.4)">
      <rect x="53.5" y="21.7" width="14.4" height="42" rx="3"/>
      <rect x="53.5" y="21.7" width="28.2" height="11.3" rx="3"/>
      <rect x="60" y="38.7" width="18.5" height="10.9" rx="3"/>
    </g>
    <g fill="#F5F0E6">
      <rect x="53.5" y="21.7" width="14.4" height="42" rx="3"/>
      <rect x="53.5" y="21.7" width="28.2" height="11.3" rx="3"/>
      <rect x="60" y="38.7" width="18.5" height="10.9" rx="3"/>
    </g>
  </g>
</svg>
